# xmcd
#
# Track frame offsets:
#	150
#	32312
#	56702
#	98610
#	116957
#	142980
#	176625
#	200940
#	224772
#	248200
#	265130
#	298135
#
# Disc length: 4269 seconds
# Revision: 2
# Processed by: cddbd v1.5.2PL0 Copyright (c) Steve Scherf et al.
# Submitted via: dBpowerAMP V12.0
#
DISCID=c010ab0c
DTITLE=Various Artist - Always and Forever: The Classics
DYEAR=1998
DGENRE=R&B
TTITLE0=Luther Vandross - A House Is Not A Home
TTITLE1=Luther Vandross - Since I Lost My Baby
TTITLE2=Luther Vandross - Superstar/Until You Come Back To Me (That's What I'm Gonna Do)
TTITLE3=Luther Vandross - Creepin'
TTITLE4=Luther Vandross - Anyone Who Had A Heart
TTITLE5=Luther Vandross and Martha Wash - I (Who Have Nothing)
TTITLE6=Luther Vandross and Cheryl Lynn - If This World Were Mine
TTITLE7=Luther Vandross - Going Out Of My Head
TTITLE8=Luther Vandross - Going In Circles
TTITLE9=Luther Vandross - Knocks Me Off My Feet
TTITLE10=Luther Vandross - Love Won't Let Me Wait
TTITLE11=Luther Vandross - Always and Forever
EXTD=
EXTT0=
EXTT1=
EXTT2=
EXTT3=
EXTT4=
EXTT5=
EXTT6=
EXTT7=
EXTT8=
EXTT9=
EXTT10=
EXTT11=
PLAYORDER=
